:SAMPLES-PER-SECOND 30
:FULLY-SPECIFIED
:DEGREES
593
root  -2.71694 40.9943 1.28378 -10.2936 -88.1092 11.453
RightUpLeg  3.98184 -1.04909 -1.22836
RightLeg  -4.00234 -18.2919 1.09583
RightFoot  -0.166445 -0.23711 2.41284
RightToes  -3.10678e-008 1.75238e-005 3.56266e-009
Spine  -0.593448 1.14088 4.56193
Spine1  -0.843301 1.90554 -5.53811
HEad  -9.83226 -5.02656 4.91399
LeftShoulder1  1.90781 -2.8149 -23.9623
LeftArm  -41.5609 28.6475 -52.8053
LeftForeArm  62.6335 -14.5903 -2.12954
LeftHand  -0.84127 -1.75708 13.8209
RightShoulder  -0.021116 -3.6351 7.51877
RightArm  -58.8481 28.7094 2.99327
RightForeArm  1.34485 65.9526 26.6806
RightHand  -0.917334 9.94533 -7.31906
LeftUpLeg  2.70829 0.303076 0.980191
LeftLeg  -3.3994 13.3671 -1.24686
LeftFoot  0.0168064 0.216818 -2.18183
LeftToes  4.76857e-008 1.46588e-008 1.31384e-009
594
root  -2.73541 40.9902 1.21907 -5.9816 -87.4284 7.04926
RightUpLeg  4.24317 -1.10217 -1.09804
RightLeg  -4.125 -18.8983 1.30318
RightFoot  -0.235276 -0.213314 2.1766
RightToes  -3.10678e-008 1.75238e-005 3.56266e-009
Spine  -0.08255 1.21645 4.37086
Spine1  -1.36544 1.96693 -5.45221
HEad  -9.49317 -5.48803 5.28814
LeftShoulder1  1.90425 -2.76868 -24.1338
LeftArm  -41.546 28.1839 -52.9922
LeftForeArm  59.5257 -15.5215 -2.25309
LeftHand  -0.795867 -1.44718 13.6594
RightShoulder  -0.220342 -5.07829 5.99908
RightArm  -58.9801 30.5395 0.216408
RightForeArm  2.17051 65.8037 26.3697
RightHand  -0.820749 9.657 -6.70553
LeftUpLeg  2.64418 0.374192 1.14963
LeftLeg  -3.16938 12.6114 -1.11441
LeftFoot  -0.0302632 0.222198 -2.24468
LeftToes  4.76857e-008 1.46588e-008 1.31384e-009
595
root  -2.74898 40.9855 1.14866 -4.44382 -86.876 5.3429
RightUpLeg  4.50653 -1.08718 -0.9477
RightLeg  -4.12441 -19.4319 1.3643
RightFoot  -0.341561 -0.209341 2.14943
RightToes  -3.10678e-008 1.75238e-005 3.56266e-009
Spine  0.270717 1.20393 4.2605
Spine1  -1.57888 2.00717 -5.7116
HEad  -9.40729 -5.8788 5.68475
LeftShoulder1  1.84177 -2.6193 -23.8418
LeftArm  -40.9782 27.8912 -53.337
LeftForeArm  57.2301 -16.3183 -2.47202
LeftHand  -0.785129 -1.42259 13.5294
RightShoulder  -0.27873 -5.62524 5.16128
RightArm  -58.9234 31.0883 -2.01705
RightForeArm  3.02041 65.6227 26.0041
RightHand  -0.739768 9.6139 -6.10338
LeftUpLeg  2.66159 0.432742 1.29342
LeftLeg  -2.92828 11.9946 -0.975138
LeftFoot  -0.0852007 0.238673 -2.42263
LeftToes  4.76857e-008 1.46588e-008 1.31384e-009
596
root  -2.76521 40.9847 1.08098 -3.18155 -86.4387 3.90149
RightUpLeg  4.84278 -1.03733 -0.757614
RightLeg  -4.2997 -19.9376 1.4625
RightFoot  -0.355616 -0.196162 2.00224
RightToes  -3.10678e-008 1.75238e-005 3.56266e-009
Spine  0.206566 1.28681 4.13639
Spine1  -1.30097 2.13101 -5.83703
HEad  -9.07951 -6.69304 5.7533
LeftShoulder1  1.88802 -2.78878 -23.7612
LeftArm  -40.84 27.4613 -53.5106
LeftForeArm  56.227 -16.7337 -2.49367
LeftHand  -0.815623 -1.77122 13.384
RightShoulder  -0.307084 -5.92874 4.65571
RightArm  -58.0659 30.7224 -4.5105
RightForeArm  3.31235 65.5781 25.8986
RightHand  -0.743276 9.89483 -6.02636
LeftUpLeg  2.76481 0.544641 1.47301
LeftLeg  -2.80422 11.3999 -0.904977
LeftFoot  -0.123937 0.248344 -2.53018
LeftToes  4.76857e-008 1.46588e-008 1.31384e-009
597
root  -2.79267 40.9833 1.03039 -3.23123 -86.2105 3.86841
RightUpLeg  5.05891 -1.04218 -0.682367
RightLeg  -4.43528 -20.179 1.54646
RightFoot  -0.410392 -0.187442 1.9158
RightToes  -3.10678e-008 1.75238e-005 3.56266e-009
Spine  -0.0655034 1.40153 3.90017
Spine1  -0.872544 2.25868 -5.75671
HEad  -8.60909 -7.31345 5.67403
LeftShoulder1  1.95783 -2.95778 -24.0745
LeftArm  -41.0989 27.1741 -53.5371
LeftForeArm  56.3805 -16.8254 -2.39444
LeftHand  -0.847782 -1.84262 13.7728
RightShoulder  -0.338746 -6.23034 4.39802
RightArm  -57.7522 30.5897 -6.54011
RightForeArm  4.17183 66.871 27.6748
RightHand  -0.712622 9.70286 -5.862
LeftUpLeg  2.87898 0.624462 1.5723
LeftLeg  -2.8241 11.08 -0.922453
LeftFoot  -0.107225 0.251567 -2.55497
LeftToes  4.76857e-008 1.46588e-008 1.31384e-009
598
root  -2.82515 40.9817 0.994538 -3.23822 -86.2356 3.90109
RightUpLeg  5.15527 -1.04897 -0.653102
RightLeg  -4.59491 -20.1413 1.6472
RightFoot  -0.399332 -0.185591 1.91334
RightToes  -3.10678e-008 1.75238e-005 3.56266e-009
Spine  -0.343915 1.5594 4.06183
Spine1  -0.531267 2.47512 -6.05765
HEad  -7.86347 -7.26568 5.87721
LeftShoulder1  2.00271 -3.04604 -24.3669
LeftArm  -40.8505 27.1025 -53.2726
LeftForeArm  56.8796 -16.7737 -2.4227
LeftHand  -0.891396 -2.30571 13.6157
RightShoulder  -0.344896 -6.34798 4.0741
RightArm  -58.3421 30.0541 -7.64156
RightForeArm  10.2566 70.2385 33.4427
RightHand  -0.749185 10.016 -6.0272
LeftUpLeg  2.93288 0.657115 1.63187
LeftLeg  -2.87741 11.0809 -0.923123
LeftFoot  -0.108696 0.258111 -2.63526
LeftToes  4.76857e-008 1.46588e-008 1.31384e-009
599
root  -2.85083 40.9802 0.965035 -2.49054 -86.3206 3.2475
RightUpLeg  5.0959 -0.940713 -0.520276
RightLeg  -4.63661 -20.2152 1.63701
RightFoot  -0.422036 -0.181951 1.88191
RightToes  -3.10678e-008 1.75238e-005 3.56266e-009
Spine  -0.261675 1.74797 4.27037
Spine1  -0.428887 2.69267 -6.20289
HEad  -7.72363 -6.85269 6.42926
LeftShoulder1  2.005 -2.96866 -24.7859
LeftArm  -40.3074 27.1437 -52.9248
LeftForeArm  57.219 -16.7264 -2.50762
LeftHand  -0.763477 -1.52103 12.9858
RightShoulder  -0.417317 -6.93465 4.0719
RightArm  -60.1307 29.4279 -8.18763
RightForeArm  33.8609 76.6158 58.1899
RightHand  -0.725923 10.348 -5.74732
LeftUpLeg  2.82215 0.63963 1.69562
LeftLeg  -2.76884 11.1723 -0.831013
LeftFoot  -0.195888 0.265762 -2.73314
LeftToes  4.76857e-008 1.46588e-008 1.31384e-009
600
root  -2.87403 40.9794 0.931241 -2.51862 -86.1575 3.40268
RightUpLeg  5.03291 -0.916706 -0.477218
RightLeg  -4.6879 -20.4061 1.68115
RightFoot  -0.478782 -0.176686 1.82407
RightToes  -3.10678e-008 1.75238e-005 3.56266e-009
Spine  0.157243 1.76078 4.45465
Spine1  -0.753646 2.71063 -6.2885
HEad  -7.00936 -7.07933 5.95016
LeftShoulder1  1.95898 -2.84694 -24.6425
LeftArm  -40.3617 27.6597 -53.3014
LeftForeArm  57.8381 -16.817 -2.49829
LeftHand  -0.760021 -1.71995 12.573
RightShoulder  -0.588764 -8.23582 4.43027
RightArm  -63.2377 30.1308 -8.58262
RightForeArm  95.6837 76.7732 121.258
RightHand  -0.501916 11.0654 -3.95044
LeftUpLeg  2.67032 0.65818 1.74461
LeftLeg  -2.71454 11.0018 -0.833041
LeftFoot  -0.193607 0.270539 -2.78843
LeftToes  4.76857e-008 1.46588e-008 1.31384e-009
